<?xml version="1.0" encoding="utf-8"?>
<!-- Generator: Adobe Illustrator 26.4.1, SVG Export Plug-In . SVG Version: 6.00 Build 0)  -->
<svg version="1.1" id="Ebene_1" xmlns="http://www.w3.org/2000/svg" xmlns:xlink="http://www.w3.org/1999/xlink" x="0px" y="0px"
	 viewBox="0 0 619.1 323.03" style="enable-background:new 0 0 619.1 323.03;" xml:space="preserve">
<style type="text/css">
	.st0{fill:#C7781A;}
	.st1{fill:#41662F;}
	.st2{fill:#E8561D;}
	.st3{fill:#006DB1;}
	.st4{fill:#D00171;}
	.st5{fill:#F1861E;}
	.st6{fill:#F6A316;}
	.st7{fill:#62A733;}
	.st8{fill:#7A142D;}
	.st9{fill:#358B36;}
	.st10{fill:#B41829;}
	.st11{fill:#E02A21;}
	.st12{fill:#03467A;}
	.st13{fill:#00A0D0;}
	.st14{fill:#079DD9;}
	.st15{fill:#1C2D50;}
	.st16{fill:#CE8E19;}
	.st17{fill:#DC0B25;}
</style>
<path id="Pfad_11_00000054980409449898910630000000029982053560494765_" class="st0" d="M238.74,141.15
	c-0.64,0.13-1.08-0.26-1.54-0.49c-10.39-5.11-20.78-10.24-31.17-15.37c-4.05-2-8.08-4.02-12.16-5.96c-0.94-0.44-1-0.79-0.51-1.68
	c5.45-9.92,12.27-19.02,20.27-27.03c0.88-0.89,1.3-0.61,2,0.17c10.88,11.9,21.77,23.78,32.68,35.65c0.46,0.51,0.94,0.86,0.24,1.58
	c-3.66,3.79-6.85,8.02-9.48,12.59C238.97,140.8,238.85,140.98,238.74,141.15"/>
<path id="Pfad_12_00000119801465103328003530000005904725397176578454_" class="st1" d="M243.77,69.28c1.99-0.99,3.99-1.94,5.97-3
	c0.92-0.49,1.19-0.11,1.5,0.69c5.7,14.57,11.4,29.14,17.12,43.7c1.06,2.72,1.07,2.74-1.56,4.02c-3.96,1.92-7.7,4.27-11.16,7
	c-0.73,0.58-1.2,0.74-1.98-0.12c-10.89-11.95-21.81-23.86-32.78-35.73c-0.87-0.95-0.61-1.31,0.2-1.98
	C228.01,78.06,235.63,73.17,243.77,69.28"/>
<path id="Pfad_13_00000052811844356254676710000012442457983091157657_" class="st2" d="M190.45,224.07c-2-4.19-3.74-8.5-5.23-12.9
	c-0.3-0.91-0.28-1.27,0.77-1.57c15.62-4.4,31.23-8.84,46.84-13.31c0.95-0.27,1.35-0.06,1.68,0.84c1.71,4.65,3.98,9.08,6.76,13.17
	c0.57,0.86,0.48,1.18-0.3,1.77c-10.18,7.69-20.35,15.4-30.49,23.13c-2.6,1.96-5.26,3.85-7.75,5.94c-1.22,1.02-1.78,0.78-2.57-0.37
	c-3.61-5.33-6.85-10.91-9.68-16.7"/>
<path id="Pfad_14_00000161622067995784282450000001182485309983049657_" class="st3" d="M275.76,109.79
	c-3.68-9.44-7.37-18.89-11.06-28.37c-2.2-5.62-4.39-11.23-6.63-16.83c-0.4-0.98-0.38-1.42,0.79-1.81
	c10.68-3.55,21.81-5.56,33.06-5.96c1.37-0.05,1.16,0.64,1.16,1.46c-0.01,14.28-0.01,28.56,0,42.85c0,1.9-0.01,3.8,0.05,5.7
	c0.03,0.83-0.23,1.11-1.08,1.15c-5.05,0.23-10.05,1.12-14.88,2.62c-0.85,0.28-1.22-0.05-1.41-0.83"/>
<path id="Pfad_15_00000049901688146386737880000011413361318199965582_" class="st4" d="M231.32,189.19
	c-5.13,1.46-10.09,2.88-15.05,4.29c-10.55,3-21.1,5.96-31.64,9.02c-1.42,0.41-1.98,0.33-2.36-1.29
	c-2.48-10.59-3.54-21.46-3.14-32.33c0.05-1.31,0.22-1.82,1.78-1.67c15.9,1.52,31.81,2.98,47.72,4.37c1.13,0.1,1.57,0.33,1.54,1.61
	c-0.1,4.89,0.38,9.77,1.44,14.55C231.73,188.24,232.28,189.05,231.32,189.19"/>
<path id="Pfad_17_00000124132220365219514670000001992436405503016598_" class="st5" d="M230.55,164.46
	c-0.3-0.03-0.62-0.05-0.95-0.08c-16.12-1.47-32.25-2.92-48.39-4.37c-1.06-0.09-1.32-0.37-1.17-1.47c1.49-11.01,4.5-21.76,8.93-31.95
	c0.43-1,0.8-1.25,1.89-0.71c14.46,7.18,28.95,14.32,43.46,21.43c0.88,0.44,1.06,0.8,0.68,1.72c-1.91,4.63-3.26,9.47-4.04,14.42
	C230.91,163.8,231.02,164.22,230.55,164.46"/>
<path id="Pfad_18_00000124860261510588313980000013829929085163837618_" class="st6" d="M238.71,275.58
	c-0.24-0.58,0.24-0.92,0.47-1.29c3.7-6.02,7.42-12.02,11.14-18.02c4.75-7.67,9.54-15.31,14.23-23.01c0.67-1.11,1.17-1.16,2.24-0.6
	c4.22,2.14,8.68,3.78,13.29,4.87c1.15,0.28,1.3,0.71,1.1,1.77c-2.97,15.87-5.91,31.74-8.83,47.62c-0.15,0.82-0.3,1.23-1.32,0.99
	c-11.06-2.45-21.71-6.46-31.63-11.92c-0.24-0.14-0.47-0.27-0.71-0.41"/>
<path id="Pfad_19_00000099620184461658981710000002940671162119901365_" class="st7" d="M300.41,107.75
	c-0.01-0.39-0.03-0.76-0.03-1.14c-0.01-16.07-0.03-32.14-0.05-48.22c0-1.21,0.25-1.56,1.51-1.48c11.09,0.61,22.05,2.76,32.54,6.39
	c1.02,0.36,1.16,0.68,0.77,1.68c-5.85,15.05-11.66,30.11-17.45,45.18c-0.37,0.96-0.73,1.19-1.76,0.85c-4.6-1.5-9.37-2.48-14.19-2.9
	C301.3,108.07,300.77,108.23,300.41,107.75"/>
<path id="Pfad_21_00000170981689172683507930000006986984337991920014_" class="st8" d="M206.29,248.76
	c-0.79-1.08,0.02-1.23,0.37-1.51c5-3.82,10.02-7.63,15.04-11.44c7.74-5.88,15.48-11.75,23.2-17.67c1.05-0.8,1.68-1.08,2.72,0.15
	c3.08,3.52,6.6,6.62,10.48,9.22c0.88,0.6,0.92,1.02,0.37,1.9c-8.55,13.75-17.08,27.51-25.59,41.29c-0.45,0.73-0.76,0.99-1.61,0.42
	c-9.28-6.17-17.64-13.62-24.84-22.13C206.3,248.81,206.19,248.62,206.29,248.76"/>
<path id="Pfad_22_00000126317565157809966610000000683805600057149831_" class="st9" d="M350.89,210.77
	c-0.35-0.44-0.02-0.74,0.18-1.04c2.78-4.23,5.04-8.78,6.73-13.56c0.35-1.01,0.91-0.64,1.52-0.47l31.2,8.92
	c5.18,1.48,10.35,3,15.54,4.43c0.95,0.26,1.17,0.51,0.83,1.51c-3.52,10.54-8.5,20.53-14.79,29.69c-0.55,0.81-0.88,0.94-1.71,0.31
	c-12.95-9.8-25.91-19.57-38.89-29.33c-0.22-0.16-0.43-0.34-0.62-0.48"/>
<path id="Pfad_23_00000168080735406498891050000002480158132097050539_" class="st10" d="M361.53,270.55
	c-0.57,0.64-1.01,0.23-1.51-0.57c-7.55-12.19-15.12-24.38-22.7-36.56c-1.01-1.62-2-3.24-3.06-4.81c-0.48-0.71-0.34-1.13,0.32-1.59
	c4.03-2.86,7.7-6.2,10.92-9.96c0.61-0.71,0.96-0.55,1.56-0.1c13,9.8,26.02,19.58,39.04,29.35c0.87,0.65,0.71,1.05,0.13,1.75
	c-6.53,7.93-14.08,14.96-22.45,20.9C363.1,269.45,362.44,269.91,361.53,270.55"/>
<path id="Pfad_24_00000057106799200395472570000005279182672275564707_" class="st11" d="M347.59,278.5
	c-7.82,3.95-16.07,6.96-24.59,8.99c-1.16,0.29-1.64,0.16-1.88-1.16c-2.88-15.81-5.8-31.6-8.77-47.39c-0.22-1.1,0.04-1.52,1.09-1.79
	c4.48-1.16,8.8-2.84,12.89-5.01c0.85-0.44,1.29-0.53,1.89,0.46c8.3,13.4,16.69,26.75,25,40.15c1.63,2.61,1.66,2-0.97,3.42
	C350.72,277,349.14,277.72,347.59,278.5"/>
<path id="Pfad_26_00000148627886143525154050000005130360907162960808_" class="st12" d="M338.2,122.69
	c-0.47,0.33-0.72-0.11-0.97-0.32c-3.86-3.1-8.07-5.74-12.53-7.87c-0.96-0.46-0.55-0.99-0.33-1.57c3.03-7.86,6.06-15.72,9.09-23.57
	c2.76-7.15,5.57-14.28,8.28-21.45c0.44-1.18,0.79-1.46,2.02-0.9c9.92,4.47,19.19,10.27,27.54,17.24c0.74,0.62,1.07,0.98,0.24,1.89
	c-10.95,11.97-21.88,23.96-32.78,35.98c-0.18,0.2-0.38,0.39-0.56,0.59"/>
<path id="Pfad_27_00000068635627683478606190000002725347027810046646_" class="st13" d="M313.89,289.23
	c-0.39,0.06-0.66,0.11-0.93,0.13c-10.71,1.57-21.59,1.64-32.32,0.22c-1.01-0.13-1.36-0.39-1.15-1.52
	c2.99-15.92,5.94-31.84,8.85-47.77c0.18-1.01,0.59-1.19,1.53-1.09c4.6,0.48,9.24,0.43,13.83-0.15c0.97-0.12,1.39,0.04,1.59,1.12
	c2.91,15.91,5.84,31.81,8.79,47.71c0.08,0.43,0.5,1.07-0.18,1.33"/>
<g id="Gruppe_5_00000065795002647815235310000009122364947522440368_">
	<path id="Pfad_6_00000039099940115512443260000016170494206577867658_" class="st14" d="M440.45,148.1
		c8.98,4.41,11.19,8.34,9.16,17.93c-2.84,13.47-9.24,24.3-23.1,29.52c-1.02-2.67,0.54-4.35,1.01-6.23c0.36-1.46,1.81-3.4-0.17-4.18
		c-2.53-0.99-1.85,1.78-2.38,2.98c-4.78,10.8-8.21,12.48-20.91,9.78c1.6-2.81,3.12-5.5,4.66-8.18c1.39-2.42,3.47-4.55,3.75-8.43
		c-5.99,2.43-6.76,8.22-10.1,11.76c-1.34,1.43-1.12,5.14-4.57,3.51c-3.15-1.49-5.03-3.94-3.92-7.71
		c1.94-6.57,6.46-11.44,11.03-16.17c3.81-3.93,7.73-7.7,10.21-12.71c-0.45-0.08-1.06-0.36-1.23-0.19
		c-8.41,8.05-18.05,7.22-34.14,18.89c-34.72,17.53-55.65,20.7-68.02,25.91c-26.63,9.03-47.24,9.34-69.28-6.42
		c-6.6-4.72-16.05-14.17-21.78-20.01c-16.65-16.97-28.48-23.27-51.67-21.66c-15.55,1.08-24.72,0.37-39.51,4.95
		c-14.35,4.45-31.91,9.87-46.85,16.72c-3.07,1.41-35.1,15.51-38.9,14.69c2.1-6.14,25.03-28.01,29.39-31.64
		c29.26-24.37,63.63-36.16,100.98-40.59c29.92-3.56,57.22,3.98,82.92,18.85c8.34,5.12,17.4,8.95,26.88,11.35
		c13.32,3.04,24.63,2.21,39.5-4.59c13.73-6.32,19.23-8.14,29.12-14.19c9.01-7.07,34.81-19.57,47.61-22.76
		c25.03-6.25,60.04-6.2,103.15-2.22c10.8,1,20.26,6.49,29.71,11.47c16.26,8.58,32.56,17.1,48.67,25.96
		c4.27,2.35,9.18,5.24,6.16,11.72c-3.14,6.73-9.04,9.32-15.94,7.29c-8.81-2.61-17.69-3.23-26.93,0.66l24.74,4.1
		c-2.95,3.58-6.22,4.05-9.14,4.85c-24.18,6.59-48.86,8.16-73.75,6.51c-9.78-0.65-18.38-4.88-25.94-11.1
		c-3.33-2.4-5.48-6.1-5.93-10.18c-0.94-8.61-5.35-11.86-14.32-11.87c-0.57-0.15-1.37-0.59-1.45,0.34
		C439.15,147.17,440,147.65,440.45,148.1 M439.75,122.71c-20.52-6.15-40.43-2.99-61.47,3.87c2.1,0.93,3.11,1.79,4.01,1.7
		c18.28-2.01,36.61-3.26,54.96-4.3C438.07,123.93,439.98,122.97,439.75,122.71 M327.45,175.1c-20.84,6.79-39.96,11.68-60.06,5.83
		C285.33,193.55,310.99,191.41,327.45,175.1 M473.61,151.69c0.48,11.34,9.33,17.34,21.36,14.65
		C486.88,163.04,479.6,158.04,473.61,151.69 M541.3,146.27c1.77-3.17,1.79-6.07-1.27-8.36c-2.12-1.94-5.41-1.79-7.35,0.33
		c-0.14,0.16-0.28,0.32-0.4,0.5c-2.01,2.19-1.87,5.59,0.32,7.6c0.26,0.24,0.54,0.45,0.84,0.64
		C536.18,149.03,538.87,148.36,541.3,146.27"/>
	<path id="Pfad_7_00000058585971307642331900000013835065147112297120_" class="st14" d="M252.58,131.94
		c-13.79-4.86-17.23-8.13-23.61-10.15c-6.62-2.29-13.37-4.19-20.2-5.71c-18.01-4.24-36.77-4.21-54.77,0.09
		c-43.62,10.54-81.38,30.97-110.25,67.82c2.47-10.54,10.5-24.28,22.81-38.17c20.97-23.65,45.6-41.62,77.4-47.88
		c26.89-5.29,50.82-3.7,75.19,8.92C236.93,116.08,242.19,121.04,252.58,131.94"/>
</g>
<path id="Pfad_20_00000007427984667858652970000000133820146639052467_" class="st15" d="M376.36,130.11
	c-7.15,3.57-14.32,7.12-21.45,10.73c-1.08,0.54-1.63,0.55-2.27-0.61c-2.31-4.13-5.14-7.94-8.43-11.35c-0.85-0.9-0.63-1.34,0.06-2.08
	c10.34-11.34,20.68-22.68,31.01-34.03c0.81-0.89,1.46-2.52,2.59-2.38c0.93,0.11,1.73,1.52,2.55,2.37c7,7.3,13.03,15.48,17.94,24.32
	c0.72,1.27,0.58,1.83-0.8,2.49C390.46,123.03,383.42,126.59,376.36,130.11"/>
<path id="Pfad_16_00000158734711656900565670000009368329232444467888_" class="st16" d="M409.27,202.44
	c-4.43-1.25-8.81-2.49-13.2-3.74c-11.45-3.27-22.89-6.58-34.36-9.78c-1.43-0.4-1.55-0.92-1.26-2.22c1.02-4.62,1.46-9.36,1.31-14.09
	c-0.03-1,0.26-1.29,1.21-1.38c16.16-1.52,32.31-3.06,48.47-4.62c1-0.1,1.27,0.11,1.32,1.13
	C413.34,179.42,412.16,191.11,409.27,202.44"/>
<path id="Pfad_25_00000052825825342046972790000017817566425397809083_" class="st17" d="M379.62,136.63
	c7.15-3.57,14.32-7.11,21.45-10.74c1.13-0.56,1.5-0.39,1.99,0.74c4.36,10.02,7.33,20.59,8.83,31.42c0.14,1.03-0.13,1.27-1.12,1.36
	c-16.14,1.52-32.29,3.07-48.43,4.64c-0.96,0.09-1.27-0.12-1.43-1.11c-0.68-4.62-1.94-9.15-3.74-13.46c-0.46-1.09-0.27-1.57,0.81-2.1
	c7.23-3.54,14.42-7.16,21.62-10.75"/>
</svg>
